Coordinates
version=1
nRows=14
nColumns=36
inDegrees=yes

Units are S.I. units (second, meters, Newtons, ...)
If the header above contains a line with 'inDegrees', this indicates whether rotational values are in degrees (yes) or radians (no).

endheader
time	pelvis_tilt	pelvis_list	pelvis_rotation	pelvis_tx	pelvis_ty	pelvis_tz	hip_flexion_r	hip_adduction_r	hip_rotation_r	knee_angle_r	knee_angle_r_beta	ankle_angle_r	subtalar_angle_r	mtp_angle_r	hip_flexion_l	hip_adduction_l	hip_rotation_l	knee_angle_l	knee_angle_l_beta	ankle_angle_l	subtalar_angle_l	mtp_angle_l	lumbar_extension	lumbar_bending	lumbar_rotation	arm_flex_r	arm_add_r	arm_rot_r	elbow_flex_r	pro_sup_r	arm_flex_l	arm_add_l	arm_rot_l	elbow_flex_l	pro_sup_l
      1.05833330	    -10.18683999	      2.11006239	      0.82635423	     -0.62169276	      1.16008964	     -0.05278672	     13.09231056	     -2.23537856	     -0.39987662	     50.62619879	      0.88359386	     25.11142309	      2.55725969	     -7.49999987	     32.74076265	      3.36176574	      5.94859213	     76.72374679	      1.33908200	     -2.31246636	    -16.46308330	     -7.49999987	     -6.74502494	     -2.27912029	      0.98710422	     64.90472759	     -7.71218443	     22.89204587	     65.99342813	     74.48410795	     70.37655412	     -2.46720624	     28.47181308	     60.21522917	     58.03181158
      1.06250000	     -9.41147798	      2.31695958	      0.68867703	     -0.61642100	      1.16549087	     -0.05126087	     11.47786892	     -2.48053763	     -0.64343344	     49.70924161	      0.86758993	     23.79833495	      3.61916911	     -7.49999987	     32.28737621	      3.10583147	      5.31345208	     76.70420754	      1.33874097	     -2.65277923	    -16.18768082	     -7.49999987	     -7.04487674	     -2.76301827	      1.19762093	     65.92085224	     -8.11222635	     23.54306902	     66.02451733	     74.59777614	     71.18443468	     -2.42095999	     28.30267707	     60.45855866	     57.40386084
      1.06666670	     -9.03708118	      2.40387466	      0.48438978	     -0.61016100	      1.16885340	     -0.05137786	     10.54820580	     -2.66917313	     -0.82111817	     49.10670807	      0.85707374	     22.62072140	      4.42428532	     -7.49999987	     32.25824578	      2.81017983	      4.84183736	     76.51144890	      1.33537670	     -2.93849608	    -15.65301470	     -7.49999987	     -6.94110784	     -3.08166267	      1.65923669	     66.69820799	     -8.71329057	     23.98123452	     66.53923605	     74.73154639	     71.68928998	     -2.48102339	     28.32192346	     61.43253087	     56.58224157
      1.07083330	     -8.87112534	      2.46554715	      0.39519783	     -0.60455838	      1.17230736	     -0.04981630	      9.78835149	     -2.77942955	     -0.80491696	     48.10797683	      0.83964259	     21.10946995	      5.47226086	     -7.49999987	     32.38270104	      2.55899983	      4.46305931	     76.29713314	      1.33163618	     -3.08852126	    -15.11817565	     -7.49999987	     -6.26753112	     -3.35302077	      2.08249883	     66.89534948	     -9.16134749	     24.00110643	     66.76202416	     74.77457844	     71.77176206	     -2.69761018	     28.50028661	     61.96281832	     56.37721698
      1.07500000	     -8.53822596	      2.43415434	      0.27359580	     -0.59952979	      1.17394928	     -0.04961198	      9.06970618	     -2.83125456	     -0.72803258	     47.66874961	      0.83197663	     19.48074042	      6.22697887	     -7.49999987	     32.51412173	      2.29798576	      4.14561411	     76.45304785	      1.33435741	     -3.10811407	    -14.31532171	     -7.49999987	     -6.23550146	     -3.37077110	      2.35670584	     67.41329767	    -10.04346468	     24.38807790	     68.29890205	     75.00095219	     72.29070661	     -3.34936882	     28.96431239	     63.57057953	     55.63216957
      1.07916670	     -8.60754293	      2.58295458	      0.33864058	     -0.59292450	      1.17809362	     -0.05084868	      8.58581752	     -3.20309681	     -0.82843259	     46.80125647	      0.81683602	     18.11831093	      6.55239575	     -7.49999987	     32.84486822	      2.26050726	      3.76925543	     76.35553363	      1.33265546	     -2.83624856	    -14.26025876	     -7.49999987	     -5.74928138	     -3.41520465	      2.50094841	     68.12893137	    -10.06491791	     24.21854812	     68.52943531	     75.03465171	     73.03041112	     -3.43765451	     28.83023048	     63.81178785	     55.46838864
      1.08333330	     -8.22865543	      2.59950472	      0.49220211	     -0.58511342	      1.18277176	     -0.05032423	      7.36339219	     -3.22654503	     -0.77042297	     45.77936499	      0.79900065	     16.69299464	      6.79719374	     -7.49999987	     32.46981400	      2.12550178	      3.49684170	     76.22645716	      1.33040265	     -1.82131703	    -14.18668344	     -7.49999987	     -5.90977257	     -3.31295467	      2.60894259	     68.72136745	    -10.55224926	     23.73758142	     70.16889266	     76.87438224	     73.82671851	     -3.82791042	     29.25613657	     65.06536930	     49.25200689
      1.08750000	     -8.10482826	      2.65611417	      0.57173542	     -0.58016844	      1.18619417	     -0.05217854	      6.51775996	     -3.42498829	     -1.09406234	     44.69581347	      0.78008911	     16.13812758	      6.25182264	     -7.49999987	     32.64322569	      2.09845519	      3.12363140	     75.80690477	      1.32308008	     -0.86137992	    -13.72556894	     -7.49999987	     -5.97370607	     -3.24633481	      2.43322157	     69.47350278	    -11.01929184	     24.11039990	     71.75106641	     76.99387091	     74.69426275	     -4.20202656	     28.92699780	     65.94540524	     49.27381809
      1.09166670	     -8.02867665	      2.86526142	      0.67926790	     -0.57318896	      1.18864533	     -0.05127038	      5.64910319	     -3.69449056	     -1.16082120	     43.61965632	      0.76130662	     15.65975227	      6.26723689	     -7.49999987	     32.68669905	      2.38646272	      2.75806505	     75.46582974	      1.31712720	      0.85350522	    -12.56390898	     -7.49999987	     -5.81734469	     -3.38584117	      2.45815462	     70.18904603	    -11.56494531	     24.43326567	     72.92587288	     77.13115338	     75.19184384	     -4.45012607	     28.40168135	     66.96318926	     49.31770000
      1.09583330	     -7.89113252	      2.92292466	      0.71306941	     -0.56626702	      1.19339786	     -0.05156182	      4.79217921	     -3.73646222	     -0.88895414	     42.42236754	      0.74040999	     15.26960355	      5.63387690	     -7.49999987	     32.64074518	      2.46740827	      2.61263625	     74.75436792	      1.30470985	      2.40912844	    -11.14106027	     -7.49999987	     -5.67772119	     -3.47745708	      2.57606813	     70.77505907	    -12.09565566	     24.72753305	     73.63857725	     77.25891507	     75.44587590	     -4.60254302	     27.93352653	     68.23602855	     49.39410668
      1.10000000	     -7.73814064	      3.01634701	      0.71676255	     -0.55772829	      1.19878230	     -0.04902738	      3.92016262	     -3.71909334	     -0.89092625	     41.54898749	      0.72516663	     13.87853312	      5.94332248	     -7.49999987	     32.38102063	      2.38591096	      2.35054027	     73.80025501	      1.28805744	      3.46869143	     -9.92560944	     -7.49999987	     -5.59499364	     -3.40448268	      2.78223423	     71.36748369	    -12.14468383	     25.15523305	     74.52684609	     77.52576122	     75.13983526	     -5.25812998	     27.06036296	     70.35575800	     49.60461085
      1.10416670	     -7.46996546	      3.28977410	      0.55433145	     -0.55322491	      1.20308842	     -0.05040400	      3.00196734	     -3.91223026	     -1.55548105	     41.78982426	      0.72937003	     13.06519119	      4.84861963	     -7.49999987	     32.28129157	      2.54255278	      1.78280463	     72.53274808	      1.26593527	      3.84233048	     -9.18568287	     -7.49999987	     -5.60947472	     -3.62368048	      3.11992741	     72.11452320	    -12.08701397	     25.41264881	     74.71813991	     77.71293981	     75.25421337	     -5.70984662	     26.51307683	     71.54945237	     49.81942382
      1.10833330	     -7.34495593	      3.54204692	      0.42939825	     -0.55033952	      1.20776996	     -0.04932790	      2.23504704	     -4.17445363	     -2.07507997	     41.11499086	      0.71759196	     12.41577471	      4.89110979	     -7.49999987	     32.49844874	      2.48536542	      1.31369800	     71.57617626	      1.24923994	      4.74127759	     -8.21616990	     -7.49999987	     -5.86477014	     -3.97850177	      3.32032827	     73.21839496	    -11.86501728	     25.50883463	     74.66598025	     77.94897814	     75.86397850	     -6.10764673	     26.13406289	     72.76739145	     50.07009996
      1.11250000	     -7.06231781	      3.94401797	      0.19651400	     -0.54030324	      1.20888852	     -0.04769684	      1.45335998	     -4.62180738	     -2.69903925	     41.41230862	      0.72278114	     12.53820716	      4.62522774	     -7.49999987	     32.20506775	      2.53758918	      0.95148872	     70.81578095	      1.23596854	      4.61678661	     -6.80513888	     -7.49999987	     -6.12309699	     -4.49004788	      3.79798632	     74.48773680	    -11.25956457	     25.20227930	     74.38040639	     78.10821301	     76.50891759	     -6.41913328	     25.81369459	     74.02244398	     50.34388583
